# xmcd
#
# Track frame offsets:
#	150
#	19783
#	32013
#	44027
#	61170
#	82355
#	98437
#	126535
#	144944
#	162785
#	175837
#	194402
#	212402
#	231750
#	244801
#	258452
#	270225
#	282262
#	293889
#	308214
#	318976
#	331013
#
# Disc length: 4606 seconds
#
# Revision: 2
# Processed by: cddbd v1.5.2PL0 Copyright (c) Steve Scherf et al.
# Submitted via: audiograbber 1.83.01
#
DISCID=3a11fc16
DTITLE=Bobbie Gentry - Patchwork - Fancy
DYEAR=1970
DGENRE=Oldies
TTITLE0=Benjamin
TTITLE1=Marigolds And Tangerines
TTITLE2=Billy The Kid
TTITLE3=Beverly
TTITLE4=Miss Clara - Azusa Sue
TTITLE5=But I Can't Get Back
TTITLE6=Jeremiah
TTITLE7=Belinda
TTITLE8=Mean Stepmama Blues
TTITLE9=Your Number One Fan
TTITLE10=Somebody Like Me
TTITLE11=Lookin' In
TTITLE12=Fancy
TTITLE13=I'll Never Fall In Love Again
TTITLE14=Delta Man
TTITLE15=Something In The Way He Moves
TTITLE16=Find 'Em, Fool 'Em And Forget 'Em
TTITLE17=He Made A Woman Out Of Me
TTITLE18=Raindrops Keep Falling On My Head
TTITLE19=If You Gotta Make A Fool Of Somebody
TTITLE20=Rainmaker
TTITLE21=Wedding Bell Blues
EXTD=
EXTT0=
EXTT1=
EXTT2=
EXTT3=
EXTT4=
EXTT5=
EXTT6=
EXTT7=
EXTT8=
EXTT9=
EXTT10=
EXTT11=
EXTT12=
EXTT13=
EXTT14=
EXTT15=
EXTT16=
EXTT17=
EXTT18=
EXTT19=
EXTT20=
EXTT21=
PLAYORDER=
